<?xml version="1.0" encoding="UTF-8"?>
<svg id="Layer_2" data-name="Layer 2" xmlns="http://www.w3.org/2000/svg" xmlns:xlink="http://www.w3.org/1999/xlink" viewBox="0 0 65.95 65.95">
  <defs>
    <style>
      .cls-1 {
        stroke: #df915d;
        stroke-miterlimit: 10;
        stroke-width: 3.85px;
      }

      .cls-1, .cls-2, .cls-3, .cls-4, .cls-5, .cls-6 {
        fill: #fff;
      }

      .cls-7 {
        fill: #e19a7d;
      }

      .cls-3, .cls-4, .cls-8 {
        stroke-width: 1.54px;
      }

      .cls-3, .cls-4, .cls-8, .cls-5, .cls-6 {
        stroke: #37322c;
      }

      .cls-3, .cls-4, .cls-8, .cls-5, .cls-6, .cls-9 {
        stroke-linejoin: round;
      }

      .cls-3, .cls-6, .cls-9 {
        stroke-linecap: round;
      }

      .cls-10 {
        fill: #37322c;
      }

      .cls-8, .cls-9 {
        fill: none;
      }

      .cls-5, .cls-6, .cls-9 {
        stroke-width: 2.31px;
      }

      .cls-9 {
        stroke: #e19a7d;
      }

      .cls-11 {
        fill: #df915d;
      }

      .cls-12 {
        clip-path: url(#clippath);
      }
    </style>
    <clipPath id="clippath">
      <path class="cls-4" d="M46.94,37.27c0,1.11-.9,2.01-2.01,2.01-.6,0-1.14-.26-1.5-.68-1.99,3.63-6.58,5.84-10.74,5.84s-8.75-2.17-10.74-5.84c-.36.42-.9.69-1.51.69-1.11,0-2.01-.9-2.01-2.01s.9-2.01,2.01-2.01c.18,0,.36.02.52.07-.49-5.81,5.17-11.7,11.52-11.8,6.53-.11,12.4,5.94,11.93,11.8.17-.05.34-.07.52-.07,1.11,0,2.01.9,2.01,2.01Z"/>
    </clipPath>
  </defs>
  <g id="OBJECTS">
    <g>
      <g>
        <path class="cls-1" d="M64.03,32.97c0,8.57-3.48,16.34-9.1,21.96h0c-1.12,1.13-2.35,2.17-3.64,3.11-.15.11-.3.22-.45.32-.15.11-.3.21-.45.31-.18.12-.36.24-.54.36h0c-.13.08-.26.16-.38.24-.13.08-.27.16-.4.24-.14.08-.27.16-.41.24-1.1.65-2.24,1.23-3.43,1.73-.16.07-.32.14-.48.2-.16.07-.32.13-.48.19-3.5,1.37-7.3,2.13-11.29,2.13s-8.05-.81-11.64-2.26h0c-1.43-.58-2.81-1.26-4.12-2.04-.14-.08-.27-.16-.41-.24-.13-.08-.26-.16-.39-.25-1.4-.88-2.72-1.88-3.95-2.97-6.46-5.69-10.53-14.02-10.53-23.3C1.92,15.82,15.83,1.92,32.98,1.92s31.05,13.9,31.05,31.05Z"/>
        <path class="cls-11" d="M52.35,34.93c0,5.35-2.17,10.2-5.68,13.7h0c-.7.7-1.46,1.36-2.27,1.94-.09.07-.19.13-.28.2-.09.07-.19.13-.28.2-.11.08-.22.15-.34.23h0c-.08.05-.16.1-.24.15-.08.05-.17.1-.25.15-.08.05-.17.1-.25.15-.69.4-1.4.77-2.14,1.08-.1.04-.2.08-.3.13-.1.04-.2.08-.3.12-2.18.86-4.56,1.33-7.05,1.33s-5.02-.5-7.27-1.41h0c-.89-.36-1.75-.79-2.57-1.27-.08-.05-.17-.1-.25-.15-.08-.05-.16-.1-.25-.15-.87-.55-1.7-1.17-2.47-1.85-4.03-3.55-6.57-8.75-6.57-14.54,0-10.7,8.68-19.38,19.38-19.38s19.38,8.67,19.38,19.38Z"/>
      </g>
      <g>
        <g>
          <g>
            <path class="cls-5" d="M27.7,12.98c.79,1.52.31,3.39-1.04,4.57l2.91,5.62-9.27,4.79-2.91-5.62c-1.75.42-3.55-.27-4.33-1.79-.94-1.82-.07-4.15,1.96-5.19.07-.04.14-.07.2-.1-.17-1.55.71-3.18,2.31-4.01,1.6-.83,3.44-.6,4.61.44.06-.04.13-.07.2-.11,2.02-1.04,4.42-.41,5.37,1.41Z"/>
            <g>
              <path class="cls-6" d="M18.38,18.78c.16.09,1.73.87,3.39.05,1.45-.72,1.86-2.12,1.93-2.34"/>
              <path class="cls-6" d="M19.09,19.05s-.2,1.14-.52,1.83"/>
              <path class="cls-6" d="M23.45,17.1s1.34.3,1.93.27"/>
            </g>
          </g>
          <path class="cls-10" d="M37.1,25.42c-.45-.41-5.7-4.94-11.95-3.18-.67.19-4.43,1.25-6.44,4.69-3.11,5.32.5,13.08-1.7,14.07-.18.08-.61.21-1.09.1-1.24-.28-1.77-1.93-1.88-2.29-.19.54-.4,1.38-.39,2.4,0,0,.02,2.32,1.54,4.43,2.21,3.07,7.42,3.6,10.11,3.07,6.31-1.22,11.38-10.6,11.79-23.28Z"/>
          <path class="cls-2" d="M43.02,51.61c-2.93,1.78-6.36,2.81-10.04,2.81-2.57,0-5.02-.5-7.27-1.41h0c-.99-.4-1.93-.88-2.83-1.42,2.23-2.7,5.9-4.46,10.06-4.46s7.86,1.77,10.08,4.49Z"/>
          <path class="cls-10" d="M43.27,51.46c-.08.05-.17.1-.25.15-.08.05-.17.1-.25.15-.57-.69-1.23-1.31-1.96-1.85h0c-.18-.13-.37-.27-.56-.39-2.07-1.35-4.63-2.11-7.3-2.11-3.89,0-7.55,1.61-9.8,4.32-.08-.05-.17-.1-.25-.15-.08-.05-.16-.1-.25-.15,0-.01.01-.02.02-.03,2.36-2.86,6.2-4.57,10.28-4.57,2.67,0,5.23.73,7.34,2.03.19.12.38.24.56.37h0c.9.63,1.71,1.37,2.4,2.2,0,.01.02.02.02.03Z"/>
          <polyline class="cls-3" points="29.56 48.26 29.56 42.46 36.06 42.46 36.06 48.26"/>
          <g>
            <path class="cls-3" d="M33.04,49.59l-4.89-1.54.2-1.49h3.57c.67.76,1.07,1.75,1.11,2.82v.22Z"/>
            <path class="cls-3" d="M37.77,48.12l-4.73,1.47v-.22s-.01-.13-.01-.13c-.02-1,.29-1.93.84-2.69h3.68l.23,1.57Z"/>
          </g>
          <line class="cls-3" x1="33.03" y1="48.26" x2="33.03" y2="52.12"/>
        </g>
        <g>
          <g>
            <path class="cls-2" d="M46.94,37.27c0,1.11-.9,2.01-2.01,2.01-.6,0-1.14-.26-1.5-.68-1.99,3.63-6.58,5.84-10.74,5.84s-8.75-2.17-10.74-5.84c-.36.42-.9.69-1.51.69-1.11,0-2.01-.9-2.01-2.01s.9-2.01,2.01-2.01c.18,0,.36.02.52.07-.49-5.81,5.17-11.7,11.52-11.8,6.53-.11,12.4,5.94,11.93,11.8.17-.05.34-.07.52-.07,1.11,0,2.01.9,2.01,2.01Z"/>
            <g class="cls-12">
              <path class="cls-7" d="M42.29,36.73c-.05,1.25-1.1,2.23-2.35,2.18-1.25-.05-2.23-1.1-2.18-2.35.05-1.25,1.1-2.23,2.35-2.18,1.25.05,2.23,1.1,2.18,2.35Z"/>
              <path class="cls-7" d="M28.21,37.49c-.05,1.25-1.1,2.23-2.35,2.18s-2.23-1.1-2.18-2.35c.05-1.25,1.1-2.23,2.35-2.18,1.25.05,2.23,1.1,2.18,2.35Z"/>
            </g>
            <path class="cls-8" d="M46.94,37.27c0,1.11-.9,2.01-2.01,2.01-.6,0-1.14-.26-1.5-.68-1.99,3.63-6.58,5.84-10.74,5.84s-8.75-2.17-10.74-5.84c-.36.42-.9.69-1.51.69-1.11,0-2.01-.9-2.01-2.01s.9-2.01,2.01-2.01c.18,0,.36.02.52.07-.49-5.81,5.17-11.7,11.52-11.8,6.53-.11,12.4,5.94,11.93,11.8.17-.05.34-.07.52-.07,1.11,0,2.01.9,2.01,2.01Z"/>
          </g>
          <path class="cls-10" d="M32.48,23.54c1.35,1.74-2.35,8.12-7.81,10.93-1.38.71-2.66,1.08-3.65,1.29-.36-.74-1.14-2.56-.74-4.8.5-2.77,2.47-4.34,3.47-5.13,2.89-2.3,7.63-3.72,8.74-2.29Z"/>
          <path class="cls-10" d="M24.72,22.41c6.98,8.04,15.04,12.23,20.56,9.94.39-.16.78-.36,1.18-.61,1.35-.86,2.16-2.41,1.96-3.99-.06-.46-.2-.94-.47-1.41-.35-.62-.82-1.02-1.19-1.28.06.12,1,1.99.31,2.64-.3.28-.79.22-.97.19-2.05-.3-2.48-3.46-4.95-5.78-1.53-1.44-3.19-1.95-4.33-2.29-5.61-1.72-11.03,1.86-12.1,2.6Z"/>
          <g>
            <path class="cls-10" d="M29.09,35.11c-.19-.01-.37-.1-.5-.25-.13-.15-.19-.33-.18-.53.02-.38.34-.68.73-.68h.05c.19.01.37.1.5.25.13.15.19.33.18.53-.02.38-.34.68-.73.68h-.05Z"/>
            <path class="cls-10" d="M36.33,34.49c-.19-.01-.37-.1-.5-.25-.13-.15-.19-.33-.18-.53.02-.38.34-.68.73-.68h.05c.19.01.37.1.5.25.13.15.19.33.18.53-.02.38-.34.68-.73.68h-.05Z"/>
            <path class="cls-9" d="M29.87,37.73s1.25,1.51,3.07.78"/>
          </g>
        </g>
        <g>
          <g>
            <path class="cls-3" d="M49.88,36.48c-.66-.36-1.62-.58-2.68-.58h-5.7v6.68s2.81,0,2.81,0h5.78v-3.16h.72v-1.76c0-.45-.35-.87-.93-1.18Z"/>
            <g>
              <path class="cls-3" d="M45.11,37.66v1.76h-.72v3.16h-5.78v-3.16h-.72v-1.76c0-.45.35-.87.93-1.18.66-.36,1.62-.58,2.68-.58s2.02.23,2.68.58c.58.31.93.73.93,1.18Z"/>
              <path class="cls-7" d="M39.58,41.61v-3.16h-.72v-.79s.12-.16.42-.33c.54-.29,1.37-.47,2.22-.47s1.67.17,2.22.47c.3.17.41.31.42.35v.77h-.72v3.16h-3.85Z"/>
            </g>
            <line class="cls-3" x1="45.11" y1="39.42" x2="50.09" y2="39.42"/>
          </g>
          <path class="cls-3" d="M40.84,45.03v-1.21c0-.69.56-1.25,1.25-1.25h4.81c.39,0,.7.32.7.7h0c0,.31-.21.59-.5.68l-3.34.94"/>
          <path class="cls-2" d="M44.13,50.88c-.2.15-.41.29-.62.42h0c-.16.11-.32.2-.49.3-.86.52-1.75.98-2.69,1.36l.49-7.96,2.94-.11.37,5.99Z"/>
          <path class="cls-10" d="M44.41,50.68c-.09.07-.19.13-.28.2-.09.07-.19.13-.28.2l-.37-5.88-2.39.09-.24,3.93h0s-.04.68-.04.68h0s-.18,2.93-.18,2.93c-.1.04-.2.08-.3.13-.1.04-.2.08-.3.12l.22-3.56.04-.67.24-3.87c0-.15.13-.27.28-.27l2.94-.12c.16,0,.29.12.3.27l.36,5.8Z"/>
        </g>
      </g>
    </g>
  </g>
</svg>