<?xml version="1.0" encoding="UTF-8"?>
<svg id="Layer_2" data-name="Layer 2" xmlns="http://www.w3.org/2000/svg" xmlns:xlink="http://www.w3.org/1999/xlink" viewBox="0 0 102.25 116.05">
  <defs>
    <style>
      .cls-1 {
        fill: #e19a7d;
      }

      .cls-2, .cls-3, .cls-4, .cls-5, .cls-6 {
        fill: #fff;
      }

      .cls-3, .cls-4, .cls-7 {
        stroke-width: 1.54px;
      }

      .cls-3, .cls-4, .cls-7, .cls-5, .cls-6 {
        stroke: #37322c;
      }

      .cls-3, .cls-4, .cls-7, .cls-5, .cls-6, .cls-8 {
        stroke-linejoin: round;
      }

      .cls-3, .cls-6, .cls-8 {
        stroke-linecap: round;
      }

      .cls-9 {
        fill: #37322c;
      }

      .cls-7, .cls-8 {
        fill: none;
      }

      .cls-5, .cls-6, .cls-8 {
        stroke-width: 2.31px;
      }

      .cls-8 {
        stroke: #e19a7d;
      }

      .cls-10 {
        clip-path: url(#clippath);
      }
    </style>
    <clipPath id="clippath">
      <path class="cls-4" d="M91.29,70.95c0,2.92-2.36,5.28-5.28,5.28-1.58,0-2.99-.69-3.95-1.79-5.23,9.56-17.32,15.36-28.25,15.36s-23.01-5.72-28.26-15.38c-.95,1.11-2.38,1.81-3.96,1.81-2.92,0-5.28-2.36-5.28-5.28s2.36-5.28,5.28-5.28c.48,0,.94.06,1.38.19-1.3-15.28,13.61-30.77,30.3-31.04,17.18-.28,32.62,15.62,31.38,31.03.44-.12.9-.18,1.38-.18,2.92,0,5.28,2.36,5.28,5.28Z"/>
    </clipPath>
  </defs>
  <g id="OBJECTS">
    <g>
      <g>
        <g>
          <path class="cls-5" d="M40.67,7.05c2.07,4,.81,8.91-2.73,12.02l7.64,14.8-24.39,12.6-7.64-14.8c-4.6,1.09-9.33-.72-11.39-4.72-2.48-4.8-.18-10.91,5.15-13.66.18-.09.36-.18.54-.26-.46-4.08,1.86-8.37,6.07-10.55,4.21-2.18,9.06-1.58,12.12,1.15.17-.1.34-.19.52-.29,5.32-2.75,11.64-1.09,14.11,3.71Z"/>
          <g>
            <path class="cls-6" d="M16.16,22.29c.43.22,4.56,2.29,8.91.14,3.81-1.88,4.91-5.58,5.07-6.17"/>
            <path class="cls-6" d="M18.03,23s-.52,3.01-1.38,4.81"/>
            <path class="cls-6" d="M29.51,17.89s3.51.79,5.07.7"/>
          </g>
        </g>
        <path class="cls-9" d="M65.41,39.78c-1.19-1.07-14.99-13-31.45-8.37-1.76.49-11.64,3.28-16.93,12.33-8.17,13.99,1.31,34.41-4.47,37-.48.22-1.62.55-2.86.27-3.26-.73-4.65-5.09-4.94-6.03-.49,1.43-1.05,3.62-1.03,6.31,0,0,.06,6.11,4.04,11.65,5.82,8.09,19.52,9.46,26.6,8.09,16.59-3.21,29.93-27.9,31.03-61.25Z"/>
        <path class="cls-2" d="M80.97,108.67c-7.7,4.68-16.74,7.38-26.42,7.38-6.76,0-13.22-1.32-19.12-3.71h0c-2.6-1.05-5.08-2.31-7.44-3.75,5.85-7.1,15.52-11.74,26.46-11.74s20.67,4.67,26.52,11.81Z"/>
        <path class="cls-9" d="M81.63,108.27c-.22.14-.44.27-.65.4-.22.13-.45.27-.67.4-1.49-1.82-3.23-3.45-5.16-4.86h0c-.48-.35-.97-.7-1.47-1.02-5.45-3.55-12.18-5.55-19.22-5.55-10.24,0-19.87,4.25-25.79,11.37-.22-.13-.45-.26-.67-.4-.22-.13-.43-.27-.65-.41.02-.03.03-.06.05-.08,6.2-7.52,16.32-12.02,27.05-12.02,7.02,0,13.75,1.92,19.32,5.34.51.32,1,.64,1.48.97h0c2.38,1.65,4.51,3.59,6.31,5.78.02.03.05.05.06.08Z"/>
        <polyline class="cls-3" points="45.58 99.87 45.58 84.61 62.67 84.61 62.67 99.87"/>
        <g>
          <path class="cls-3" d="M54.71,103.36l-12.86-4.06.53-3.93h9.39c1.75,2.01,2.82,4.6,2.92,7.42l.02.57Z"/>
          <path class="cls-3" d="M67.16,99.49l-12.45,3.87-.02-.57v-.34c-.07-2.62.74-5.08,2.19-7.08h9.68l.6,4.12Z"/>
        </g>
        <line class="cls-3" x1="54.71" y1="99.87" x2="54.71" y2="110.03"/>
      </g>
      <g>
        <g>
          <path class="cls-2" d="M91.29,70.95c0,2.92-2.36,5.28-5.28,5.28-1.58,0-2.99-.69-3.95-1.79-5.23,9.56-17.32,15.36-28.25,15.36s-23.01-5.72-28.26-15.38c-.95,1.11-2.38,1.81-3.96,1.81-2.92,0-5.28-2.36-5.28-5.28s2.36-5.28,5.28-5.28c.48,0,.94.06,1.38.19-1.3-15.28,13.61-30.77,30.3-31.04,17.18-.28,32.62,15.62,31.38,31.03.44-.12.9-.18,1.38-.18,2.92,0,5.28,2.36,5.28,5.28Z"/>
          <g class="cls-10">
            <path class="cls-1" d="M79.06,69.54c-.12,3.29-2.89,5.86-6.18,5.74-3.29-.12-5.86-2.89-5.74-6.18.12-3.29,2.89-5.86,6.18-5.74,3.29.12,5.86,2.89,5.74,6.18Z"/>
            <path class="cls-1" d="M42.02,71.53c-.12,3.29-2.89,5.86-6.18,5.74s-5.86-2.89-5.74-6.18c.12-3.29,2.89-5.86,6.18-5.74,3.29.12,5.86,2.89,5.74,6.18Z"/>
          </g>
          <path class="cls-7" d="M91.29,70.95c0,2.92-2.36,5.28-5.28,5.28-1.58,0-2.99-.69-3.95-1.79-5.23,9.56-17.32,15.36-28.25,15.36s-23.01-5.72-28.26-15.38c-.95,1.11-2.38,1.81-3.96,1.81-2.92,0-5.28-2.36-5.28-5.28s2.36-5.28,5.28-5.28c.48,0,.94.06,1.38.19-1.3-15.28,13.61-30.77,30.3-31.04,17.18-.28,32.62,15.62,31.38,31.03.44-.12.9-.18,1.38-.18,2.92,0,5.28,2.36,5.28,5.28Z"/>
        </g>
        <path class="cls-9" d="M53.25,34.83c3.55,4.59-6.19,21.37-20.56,28.76-3.62,1.86-6.99,2.85-9.6,3.4-.96-1.94-2.99-6.74-1.94-12.63,1.31-7.3,6.49-11.42,9.12-13.5,7.61-6.05,20.06-9.79,22.98-6.03Z"/>
        <path class="cls-9" d="M32.85,31.85c18.37,21.15,39.57,32.19,54.08,26.15,1.02-.42,2.06-.95,3.1-1.62,3.55-2.25,5.68-6.33,5.15-10.51-.15-1.22-.53-2.48-1.23-3.7-.93-1.62-2.16-2.69-3.13-3.36.16.3,2.62,5.24.82,6.95-.79.75-2.09.57-2.56.5-5.39-.8-6.53-9.11-13.02-15.22-4.02-3.78-8.4-5.12-11.38-6.03-14.76-4.51-29.03,4.91-31.83,6.83Z"/>
        <g>
          <path class="cls-9" d="M44.33,65.27c-.51-.03-.98-.26-1.32-.65-.34-.38-.51-.88-.47-1.39.06-1.01.91-1.8,1.91-1.8h.12c.51.04.98.27,1.32.65.34.39.51.88.47,1.39-.06,1.01-.91,1.8-1.91,1.8h-.12Z"/>
          <path class="cls-9" d="M63.39,63.64c-.51-.03-.98-.26-1.32-.65-.34-.39-.51-.88-.47-1.39.06-1.01.91-1.8,1.91-1.8h.12c.51.04.98.27,1.32.65.34.39.51.88.47,1.39-.06,1.01-.91,1.8-1.91,1.8h-.12Z"/>
          <path class="cls-8" d="M46.37,72.15s3.29,3.98,8.09,2.06"/>
        </g>
      </g>
      <g>
        <g>
          <path class="cls-3" d="M99.04,68.86c-1.74-.94-4.26-1.54-7.06-1.54h-14.99v17.58s7.38,0,7.38,0h15.21v-8.31h1.89v-4.63c0-1.19-.92-2.28-2.44-3.1Z"/>
          <g>
            <path class="cls-3" d="M86.49,71.96v4.63h-1.89v8.31h-15.21v-8.31h-1.89v-4.63c0-1.19.92-2.28,2.44-3.1,1.73-.94,4.26-1.54,7.06-1.54s5.32.59,7.06,1.54c1.52.82,2.44,1.91,2.44,3.1Z"/>
            <path class="cls-1" d="M71.94,82.35v-8.31h-1.89v-2.08s.3-.43,1.11-.86c1.41-.77,3.6-1.23,5.84-1.23s4.4.45,5.84,1.23c.8.43,1.08.82,1.11.92v2.03h-1.9v8.31h-10.12Z"/>
          </g>
          <line class="cls-3" x1="86.49" y1="76.6" x2="99.58" y2="76.6"/>
        </g>
        <path class="cls-3" d="M75.24,91.37v-3.18c0-1.82,1.47-3.29,3.29-3.29h12.66c1.02,0,1.85.83,1.85,1.85h0c0,.82-.54,1.54-1.33,1.78l-8.8,2.48"/>
        <path class="cls-2" d="M83.89,106.76c-.53.38-1.08.75-1.62,1.11h0c-.42.28-.85.54-1.28.8-2.25,1.37-4.62,2.57-7.08,3.58l1.28-20.94,7.75-.3.98,15.75Z"/>
        <path class="cls-9" d="M84.63,106.23c-.25.18-.49.35-.74.53-.25.18-.49.35-.74.52l-.96-15.47-6.3.25-.63,10.35h0s-.12,1.8-.12,1.8h0s-.47,7.72-.47,7.72c-.26.12-.52.22-.78.33-.26.11-.52.22-.79.32l.58-9.38.1-1.75.62-10.17c.02-.39.35-.7.74-.72l7.75-.31c.42-.02.77.31.79.72l.95,15.27Z"/>
      </g>
    </g>
  </g>
</svg>